<svg width="27" height="33" viewBox="0 0 27 33" fill="none" xmlns="http://www.w3.org/2000/svg">
<path d="M2.5487 19.6336C1.36793 17.7 0.74539 15.4773 0.750026 13.2116C0.750026 6.32854 6.38681 0.75 13.3392 0.75C20.2915 0.75 25.9283 6.32854 25.9283 13.2116C25.9329 15.4773 25.3104 17.7 24.1296 19.6336" stroke="black" stroke-width="1.5" stroke-linecap="round"/>
<path d="M18.0601 27.5017L17.8555 28.5198C17.6352 29.6324 17.5235 30.1879 17.2732 30.6285C16.8877 31.3076 16.2634 31.8191 15.5218 32.0636C15.0418 32.2226 14.4722 32.2226 13.3391 32.2226C12.2061 32.2226 11.6365 32.2226 11.1565 32.0652C10.4146 31.8203 9.79029 31.3082 9.40504 30.6285C9.15483 30.1879 9.0431 29.6324 8.82279 28.5198L8.61822 27.5017M6.07364 24.5086C5.92886 24.0743 5.85648 23.8556 5.86435 23.6793C5.87325 23.4971 5.93476 23.3213 6.04144 23.1733C6.14812 23.0253 6.29541 22.9114 6.46548 22.8453C6.62914 22.7808 6.85889 22.7808 7.31524 22.7808H19.363C19.821 22.7808 20.0492 22.7808 20.2128 22.8437C20.3831 22.9099 20.5306 23.0241 20.6373 23.1724C20.744 23.3207 20.8053 23.4968 20.8139 23.6793C20.8218 23.8556 20.7494 24.0727 20.6047 24.5086C20.3371 25.3127 20.2034 25.7156 19.9972 26.0413C19.566 26.7221 18.8902 27.2116 18.1089 27.4088C17.7343 27.5017 17.3126 27.5017 16.4675 27.5017H10.2107C9.3657 27.5017 8.94239 27.5017 8.56944 27.4073C7.78838 27.2104 7.11254 26.7215 6.68107 26.0413C6.47492 25.7156 6.34116 25.3127 6.07364 24.5086Z" stroke="black" stroke-width="1.5"/>
<path d="M7.43799 12.9459L10.9787 16.4865V22.7811M19.2403 12.9459L15.6996 16.4865V22.7811M7.43799 14.1261C7.75101 14.1261 8.05121 14.0017 8.27254 13.7804C8.49388 13.5591 8.61823 13.2589 8.61823 12.9459C8.61823 12.6328 8.49388 12.3326 8.27254 12.1113C8.05121 11.89 7.75101 11.7656 7.43799 11.7656C7.12498 11.7656 6.82478 11.89 6.60344 12.1113C6.38211 12.3326 6.25776 12.6328 6.25776 12.9459C6.25776 13.2589 6.38211 13.5591 6.60344 13.7804C6.82478 14.0017 7.12498 14.1261 7.43799 14.1261ZM19.2403 14.1261C18.9273 14.1261 18.6271 14.0017 18.4058 13.7804C18.1844 13.5591 18.0601 13.2589 18.0601 12.9459C18.0601 12.6328 18.1844 12.3326 18.4058 12.1113C18.6271 11.89 18.9273 11.7656 19.2403 11.7656C19.5533 11.7656 19.8535 11.89 20.0749 12.1113C20.2962 12.3326 20.4205 12.6328 20.4205 12.9459C20.4205 13.2589 20.2962 13.5591 20.0749 13.7804C19.8535 14.0017 19.5533 14.1261 19.2403 14.1261Z" stroke="black" stroke-width="1.5" stroke-linecap="round" stroke-linejoin="round"/>
</svg>
