<svg width="28" height="26" viewBox="0 0 28 26" fill="none" xmlns="http://www.w3.org/2000/svg">
<path d="M13.8637 17.3755V23.9323" stroke="black" stroke-width="1.5" stroke-linecap="round"/>
<path d="M5.96925 1.35723C3.75041 0.934966 2.641 0.723835 1.69419 1.53426C0.75 2.34338 0.75 3.65868 0.75 6.28929V15.743C0.75 18.148 0.75 19.3505 1.35716 20.1019C1.96302 20.852 3.29799 21.1065 5.97056 21.6153C8.3507 22.069 10.2089 22.7903 11.5544 23.5168C12.8789 24.2314 13.5398 24.5881 13.8637 24.5881C14.1876 24.5881 14.8498 24.2314 16.1717 23.5168C17.5185 22.7916 19.3767 22.069 21.7581 21.6153C24.4281 21.1065 25.7644 20.852 26.3702 20.1019C26.9774 19.3505 26.9774 18.148 26.9774 15.743V6.28929C26.9774 3.65868 26.9774 2.34338 26.0332 1.53426C25.0864 0.723835 23.977 0.934966 21.7581 1.35723" stroke="black" stroke-width="1.5" stroke-linecap="round" stroke-linejoin="round"/>
<path d="M12.8802 11.4745C12.8802 11.2136 12.7765 10.9635 12.5921 10.779C12.4077 10.5946 12.1575 10.491 11.8966 10.491C11.6358 10.491 11.3856 10.5946 11.2012 10.779C11.0167 10.9635 10.9131 11.2136 10.9131 11.4745H12.8802ZM10.9131 14.0972C10.9131 14.3581 11.0167 14.6082 11.2012 14.7927C11.3856 14.9771 11.6358 15.0808 11.8966 15.0808C12.1575 15.0808 12.4077 14.9771 12.5921 14.7927C12.7765 14.6082 12.8802 14.3581 12.8802 14.0972H10.9131ZM16.8143 11.4745C16.8143 11.2136 16.7107 10.9635 16.5262 10.779C16.3418 10.5946 16.0916 10.491 15.8307 10.491C15.5699 10.491 15.3197 10.5946 15.1353 10.779C14.9508 10.9635 14.8472 11.2136 14.8472 11.4745H16.8143ZM14.8472 14.0972C14.8472 14.3581 14.9508 14.6082 15.1353 14.7927C15.3197 14.9771 15.5699 15.0808 15.8307 15.0808C16.0916 15.0808 16.3418 14.9771 16.5262 14.7927C16.7107 14.6082 16.8143 14.3581 16.8143 14.0972H14.8472ZM12.8802 0.983527C12.8802 0.72268 12.7765 0.472515 12.5921 0.288068C12.4077 0.103621 12.1575 0 11.8966 0C11.6358 0 11.3856 0.103621 11.2012 0.288068C11.0167 0.472515 10.9131 0.72268 10.9131 0.983527H12.8802ZM10.9131 3.60627C10.9131 3.86711 11.0167 4.11728 11.2012 4.30173C11.3856 4.48617 11.6358 4.58979 11.8966 4.58979C12.1575 4.58979 12.4077 4.48617 12.5921 4.30173C12.7765 4.11728 12.8802 3.86711 12.8802 3.60627H10.9131ZM16.8143 0.983527C16.8143 0.72268 16.7107 0.472515 16.5262 0.288068C16.3418 0.103621 16.0916 0 15.8307 0C15.5699 0 15.3197 0.103621 15.1353 0.288068C14.9508 0.472515 14.8472 0.72268 14.8472 0.983527H16.8143ZM14.8472 3.60627C14.8472 3.86711 14.9508 4.11728 15.1353 4.30173C15.3197 4.48617 15.5699 4.58979 15.8307 4.58979C16.0916 4.58979 16.3418 4.48617 16.5262 4.30173C16.7107 4.11728 16.8143 3.86711 16.8143 3.60627H14.8472ZM9.92959 6.55685C10.1904 6.55685 10.4406 6.45323 10.625 6.26878C10.8095 6.08433 10.9131 5.83417 10.9131 5.57332C10.9131 5.31247 10.8095 5.06231 10.625 4.87786C10.4406 4.69341 10.1904 4.58979 9.92959 4.58979V6.55685ZM7.30685 4.58979C7.046 4.58979 6.79583 4.69341 6.61139 4.87786C6.42694 5.06231 6.32332 5.31247 6.32332 5.57332C6.32332 5.83417 6.42694 6.08433 6.61139 6.26878C6.79583 6.45323 7.046 6.55685 7.30685 6.55685V4.58979ZM9.92959 10.491C10.1904 10.491 10.4406 10.3873 10.625 10.2029C10.8095 10.0184 10.9131 9.76828 10.9131 9.50743C10.9131 9.24658 10.8095 8.99642 10.625 8.81197C10.4406 8.62752 10.1904 8.5239 9.92959 8.5239V10.491ZM7.30685 8.5239C7.046 8.5239 6.79583 8.62752 6.61139 8.81197C6.42694 8.99642 6.32332 9.24658 6.32332 9.50743C6.32332 9.76828 6.42694 10.0184 6.61139 10.2029C6.79583 10.3873 7.046 10.491 7.30685 10.491V8.5239ZM20.4205 6.55685C20.6814 6.55685 20.9316 6.45323 21.116 6.26878C21.3004 6.08433 21.4041 5.83417 21.4041 5.57332C21.4041 5.31247 21.3004 5.06231 21.116 4.87786C20.9316 4.69341 20.6814 4.58979 20.4205 4.58979V6.55685ZM17.7978 4.58979C17.537 4.58979 17.2868 4.69341 17.1023 4.87786C16.9179 5.06231 16.8143 5.31247 16.8143 5.57332C16.8143 5.83417 16.9179 6.08433 17.1023 6.26878C17.2868 6.45323 17.537 6.55685 17.7978 6.55685V4.58979ZM20.4205 10.491C20.6814 10.491 20.9316 10.3873 21.116 10.2029C21.3004 10.0184 21.4041 9.76828 21.4041 9.50743C21.4041 9.24658 21.3004 8.99642 21.116 8.81197C20.9316 8.62752 20.6814 8.5239 20.4205 8.5239V10.491ZM17.7978 8.5239C17.537 8.5239 17.2868 8.62752 17.1023 8.81197C16.9179 8.99642 16.8143 9.24658 16.8143 9.50743C16.8143 9.76828 16.9179 10.0184 17.1023 10.2029C17.2868 10.3873 17.537 10.491 17.7978 10.491V8.5239ZM12.5523 4.58979H15.1751V2.62274H12.5523V4.58979ZM16.8143 6.22901V8.85175H18.7813V6.22901H16.8143ZM15.1751 10.491H12.5523V12.458H15.1751V10.491ZM10.9131 8.85175V6.22901H8.94606V8.85175H10.9131ZM12.5523 10.491C11.9058 10.491 11.5203 10.4883 11.2449 10.4516C11.1641 10.4433 11.0847 10.4244 11.0088 10.3952L9.61879 11.7853C10.024 12.1918 10.5158 12.3387 10.9826 12.4016C11.4206 12.4606 11.9622 12.458 12.5523 12.458V10.491ZM8.94606 8.85175C8.94606 9.44186 8.94344 9.98346 9.00245 10.4215C9.06539 10.8883 9.21227 11.3801 9.61879 11.7853L11.0088 10.3952L11.0075 10.3913L11.001 10.3782C10.9759 10.3074 10.9596 10.2339 10.9525 10.1592C10.9157 9.88379 10.9131 9.49825 10.9131 8.85175H8.94606ZM16.8143 8.85175C16.8143 9.49825 16.8117 9.88379 16.7749 10.1592C16.7667 10.24 16.7477 10.3194 16.7185 10.3952L18.1086 11.7853C18.5151 11.3801 18.662 10.8883 18.7249 10.4215C18.784 9.98346 18.7813 9.44186 18.7813 8.85175H16.8143ZM15.1751 12.458C15.7652 12.458 16.3068 12.4606 16.7448 12.4016C17.2116 12.3387 17.7034 12.1918 18.1086 11.7853L16.7185 10.3952L16.7146 10.3965L16.7015 10.4031C16.6308 10.4282 16.5572 10.4445 16.4825 10.4516C16.2071 10.4883 15.8216 10.491 15.1751 10.491V12.458ZM15.1751 4.58979C15.8216 4.58979 16.2071 4.59242 16.4825 4.62914C16.5619 4.63732 16.64 4.65584 16.7146 4.68421L16.7185 4.68552L18.1086 3.29547C17.7034 2.88895 17.2116 2.74207 16.7448 2.67913C16.3068 2.62012 15.7652 2.62274 15.1751 2.62274V4.58979ZM18.7813 6.22901C18.7813 5.63889 18.784 5.09729 18.7249 4.6593C18.662 4.19245 18.5151 3.70069 18.1086 3.29547L16.7185 4.68552L16.7199 4.68946L16.7264 4.70257C16.7382 4.73142 16.7579 4.79437 16.7749 4.92157C16.8117 5.19696 16.8143 5.5825 16.8143 6.22901H18.7813ZM12.5523 2.62274C11.9622 2.62274 11.4206 2.62012 10.9826 2.67913C10.5158 2.74207 10.024 2.88895 9.61879 3.29547L11.0088 4.68552L11.0128 4.68421L11.0259 4.67766C11.0966 4.65259 11.1702 4.6363 11.2449 4.62914C11.5203 4.59242 11.9058 4.58979 12.5523 4.58979V2.62274ZM10.9131 6.22901C10.9131 5.5825 10.9157 5.19696 10.9525 4.92157C10.9607 4.84074 10.9797 4.76136 11.0088 4.68552L9.61879 3.29547C9.21227 3.70069 9.06539 4.19245 9.00245 4.6593C8.94344 5.09729 8.94606 5.63889 8.94606 6.22901H10.9131ZM10.9131 11.4745V14.0972H12.8802V11.4745H10.9131ZM14.8472 11.4745V14.0972H16.8143V11.4745H14.8472ZM10.9131 0.983527V3.60627H12.8802V0.983527H10.9131ZM14.8472 0.983527V3.60627H16.8143V0.983527H14.8472ZM9.92959 4.58979H7.30685V6.55685H9.92959V4.58979ZM9.92959 8.5239H7.30685V10.491H9.92959V8.5239ZM20.4205 4.58979H17.7978V6.55685H20.4205V4.58979ZM20.4205 8.5239H17.7978V10.491H20.4205V8.5239Z" fill="black"/>
</svg>
