<svg width="27" height="25" viewBox="0 0 27 25" fill="none" xmlns="http://www.w3.org/2000/svg">
<path d="M5.2322 4.321L7.35416 5.719M5.2322 19.679L7.35416 18.28M21.0324 4.321L18.9105 5.719M21.0324 19.679L18.9105 18.28M0.75055 3C0.75055 3.29547 0.814603 3.58806 0.939052 3.86104C1.0635 4.13402 1.24591 4.38206 1.47586 4.59099C1.70581 4.79992 1.9788 4.96566 2.27924 5.07873C2.57969 5.1918 2.90171 5.25 3.2269 5.25C3.5521 5.25 3.87412 5.1918 4.17456 5.07873C4.47501 4.96566 4.748 4.79992 4.97795 4.59099C5.2079 4.38206 5.39031 4.13402 5.51476 3.86104C5.63921 3.58806 5.70326 3.29547 5.70326 3C5.70326 2.40326 5.44236 1.83097 4.97795 1.40901C4.51354 0.987053 3.88367 0.75 3.2269 0.75C2.57013 0.75 1.94026 0.987053 1.47586 1.40901C1.01145 1.83097 0.75055 2.40326 0.75055 3ZM0.75055 21C0.743602 21.2994 0.802504 21.597 0.923804 21.8755C1.0451 22.1539 1.22636 22.4076 1.45695 22.6216C1.68753 22.8355 1.96281 23.0055 2.26665 23.1216C2.57048 23.2377 2.89676 23.2974 3.22635 23.2974C3.55595 23.2974 3.88222 23.2377 4.18606 23.1216C4.48989 23.0055 4.76517 22.8355 4.99576 22.6216C5.22635 22.4076 5.40761 22.1539 5.5289 21.8755C5.6502 21.597 5.70911 21.2994 5.70216 21C5.6885 20.4116 5.42166 19.8515 4.95885 19.4398C4.49603 19.028 3.87408 18.7974 3.22635 18.7974C2.57863 18.7974 1.95668 19.028 1.49386 19.4398C1.03105 19.8515 0.764205 20.4116 0.75055 21ZM20.5614 3C20.5614 3.59674 20.8223 4.16903 21.2867 4.59099C21.7511 5.01295 22.381 5.25 23.0377 5.25C23.6945 5.25 24.3244 5.01295 24.7888 4.59099C25.2532 4.16903 25.5141 3.59674 25.5141 3C25.5141 2.40326 25.2532 1.83097 24.7888 1.40901C24.3244 0.987053 23.6945 0.75 23.0377 0.75C22.381 0.75 21.7511 0.987053 21.2867 1.40901C20.8223 1.83097 20.5614 2.40326 20.5614 3ZM20.5614 21C20.5614 21.5967 20.8223 22.169 21.2867 22.591C21.7511 23.0129 22.381 23.25 23.0377 23.25C23.6945 23.25 24.3244 23.0129 24.7888 22.591C25.2532 22.169 25.5141 21.5967 25.5141 21C25.5141 20.4033 25.2532 19.831 24.7888 19.409C24.3244 18.9871 23.6945 18.75 23.0377 18.75C22.381 18.75 21.7511 18.9871 21.2867 19.409C20.8223 19.831 20.5614 20.4033 20.5614 21ZM10.2432 7.875C10.2432 8.57119 10.5476 9.23887 11.0894 9.73116C11.6312 10.2234 12.3661 10.5 13.1323 10.5C13.8986 10.5 14.6334 10.2234 15.1752 9.73116C15.717 9.23887 16.0214 8.57119 16.0214 7.875C16.0214 7.17881 15.717 6.51113 15.1752 6.01884C14.6334 5.52656 13.8986 5.25 13.1323 5.25C12.3661 5.25 11.6312 5.52656 11.0894 6.01884C10.5476 6.51113 10.2432 7.17881 10.2432 7.875ZM8.17961 15.75C8.17961 14.5565 8.70142 13.4119 9.63023 12.568C10.559 11.7241 11.8188 11.25 13.1323 11.25C14.4459 11.25 15.7056 11.7241 16.6344 12.568C17.5632 13.4119 18.085 14.5565 18.085 15.75H8.17961Z" stroke="black" stroke-width="1.5" stroke-linecap="round" stroke-linejoin="round"/>
</svg>
