<svg width="37" height="26" viewBox="0 0 37 26" fill="none" xmlns="http://www.w3.org/2000/svg">
<path d="M36.5865 8.58793L32.8606 1.13179C32.7406 0.891556 32.5745 0.677305 32.3717 0.50127C32.169 0.325235 31.9335 0.190863 31.6788 0.105826C31.4241 0.0207888 31.1551 -0.0132473 30.8873 0.00565998C30.6194 0.0245673 30.3579 0.0960478 30.1177 0.216021L26.3845 2.08261L18.6246 0.0290701C18.478 -0.00890313 18.3242 -0.00890313 18.1776 0.0290701L10.4177 2.08261L6.68599 0.216021C6.44569 0.0958206 6.18405 0.0241589 5.91603 0.00513291C5.64802 -0.0138931 5.37888 0.0200898 5.12401 0.105138C4.86913 0.190187 4.63352 0.324633 4.43064 0.500793C4.22775 0.676952 4.06158 0.89137 3.94161 1.13179L0.21573 8.58793C-0.0266709 9.07292 -0.0665246 9.63433 0.104933 10.1487C0.276391 10.6631 0.645121 11.0883 1.13004 11.3308L5.09545 13.3143L13.2176 19.1156C13.3056 19.1791 13.4047 19.2256 13.5097 19.2529L22.8573 21.5898C22.9284 21.6076 23.0015 21.6165 23.0749 21.6161C23.3072 21.6159 23.53 21.5234 23.6942 21.359L31.7725 13.2807L35.6722 11.3308C36.1571 11.0883 36.5258 10.6631 36.6973 10.1487C36.8687 9.63433 36.8289 9.07292 36.5865 8.58793ZM28.8455 13.7232L23.6168 9.53437C23.4481 9.3994 23.2356 9.33147 23.0199 9.3436C22.8043 9.35573 22.6007 9.44707 22.4483 9.60009C19.7244 12.3445 16.6791 11.9983 14.738 10.7569C14.6999 10.7333 14.6676 10.7013 14.6438 10.6633C14.62 10.6253 14.6053 10.5824 14.6007 10.5378C14.5956 10.4969 14.5996 10.4553 14.6124 10.4162C14.6253 10.377 14.6468 10.3412 14.6752 10.3114L21.0929 4.08941H26.0384L30.1878 12.3883L28.8455 13.7232ZM1.76684 9.59425C1.74269 9.52103 1.74846 9.44122 1.78291 9.37224L5.51024 1.91465C5.53474 1.86603 5.57234 1.82523 5.61879 1.79684C5.66524 1.76845 5.7187 1.75361 5.77314 1.75399C5.81826 1.75403 5.86275 1.76453 5.90313 1.78466L9.14703 3.40587L5.15679 11.3922L1.9129 9.77098C1.87789 9.75289 1.8469 9.72791 1.8218 9.69754C1.7967 9.66717 1.77801 9.63203 1.76684 9.59425ZM22.8061 19.7699L14.1012 17.5937L6.667 12.2831L10.9289 3.76079L18.4011 1.7832L20.5627 2.35573C20.3974 2.38772 20.2451 2.46744 20.1246 2.58504L13.4498 9.06261C13.2331 9.2792 13.0678 9.54172 12.9662 9.83077C12.8646 10.1198 12.8292 10.428 12.8627 10.7326C12.8963 11.0371 12.9978 11.3303 13.1598 11.5903C13.3219 11.8503 13.5403 12.0707 13.7989 12.2349C16.7521 14.122 20.3349 13.7671 23.1172 11.3747L27.6026 14.9706L22.8061 19.7699ZM35.0354 9.59425C35.0234 9.6307 35.0043 9.66442 34.9792 9.6935C34.9541 9.72257 34.9236 9.74641 34.8893 9.76367L31.6454 11.3922L27.6552 3.40587L30.8991 1.78466C30.9334 1.76741 30.9709 1.75711 31.0092 1.75435C31.0476 1.75159 31.0861 1.75643 31.1225 1.76859C31.159 1.78061 31.1927 1.7997 31.2218 1.82476C31.2509 1.84982 31.2747 1.88037 31.292 1.91465L35.0193 9.37224C35.0538 9.44122 35.0595 9.52103 35.0354 9.59425ZM18.6772 24.4569C18.6209 24.6823 18.4775 24.8761 18.2784 24.9958C18.0793 25.1155 17.8408 25.1512 17.6153 25.0951L11.5204 23.5718C11.4153 23.5448 11.3162 23.4982 11.2283 23.4345L7.37683 20.6872C7.18761 20.5516 7.05999 20.3464 7.02205 20.1167C6.98412 19.8871 7.03897 19.6517 7.17455 19.4625C7.31012 19.2733 7.51532 19.1456 7.74499 19.1077C7.97466 19.0698 8.21 19.1246 8.39922 19.2602L12.1076 21.9082L18.0389 23.3907C18.1508 23.4186 18.2562 23.4684 18.3488 23.5372C18.4414 23.606 18.5196 23.6924 18.5788 23.7915C18.6379 23.8906 18.6769 24.0003 18.6936 24.1145C18.7102 24.2287 18.7041 24.345 18.6757 24.4569H18.6772Z" fill="black"/>
</svg>
