<svg width="27" height="27" viewBox="0 0 27 27" fill="none" xmlns="http://www.w3.org/2000/svg">
<path d="M13.1137 0C5.90116 0 0 5.90116 0 13.1137C0 20.3262 5.90116 26.2274 13.1137 26.2274C20.3262 26.2274 26.2274 20.3262 26.2274 13.1137C26.2274 5.90116 20.3262 0 13.1137 0ZM21.6376 8.68782C22.2933 8.68782 22.785 9.17959 23.4407 9.17959C22.949 9.83527 20.818 9.83527 20.1623 9.01567C20.6541 8.85174 20.9819 8.68782 21.6376 8.68782ZM1.63921 13.1137C1.63921 12.458 1.63921 11.8023 1.80313 10.9827C1.96705 10.9827 2.13098 11.1466 2.2949 11.1466C2.2949 11.1466 2.45882 11.3106 2.45882 11.4745C2.45882 11.9662 2.95058 12.2941 3.27842 12.2941C4.58979 12.458 5.08156 13.6055 6.22901 13.9333C6.55685 14.0972 6.39293 14.4251 6.22901 14.7529C5.24548 16.0643 6.06508 17.0478 6.88469 17.8674C7.7043 18.5231 7.7043 19.1788 7.86822 20.1623C7.86822 21.3098 8.03214 22.6211 8.5239 23.7686C4.42587 21.8015 1.63921 17.8674 1.63921 13.1137ZM13.1137 24.5882C11.9662 24.5882 10.6549 24.4243 9.67135 24.0964C9.50743 23.7686 9.50743 23.4407 9.67135 23.1129C10.327 21.8015 10.9827 20.6541 11.8023 19.5066C12.1302 19.1788 12.458 18.8509 12.458 18.3592C12.458 18.0313 12.6219 17.5396 12.7859 17.2117C13.2776 16.3921 13.1137 15.9004 12.458 15.7364C11.1466 15.4086 10.491 14.2611 9.50743 13.7694C8.5239 13.2776 7.54038 12.9498 6.72077 13.4415C6.39293 13.6055 5.90116 13.7694 5.90116 13.2776C5.90116 12.6219 5.08156 12.1302 5.24548 11.4745C5.08156 11.4745 4.91764 11.4745 4.75371 11.6384C4.58979 11.8023 4.42587 11.9662 4.09803 11.8023C3.77019 11.4745 3.93411 11.1466 3.93411 10.8188C4.09803 10.491 4.26195 10.327 4.58979 10.1631C5.24548 9.99919 5.90116 9.99919 6.22901 10.8188C6.72077 9.34351 7.7043 8.5239 8.68782 7.86822C8.68782 7.86822 9.99919 6.72077 10.1631 6.72077C10.327 6.72077 10.491 7.04861 10.8188 7.21253C11.1466 7.21253 11.3106 7.21253 11.3106 6.88469C11.4745 6.06508 10.9827 5.08156 10.327 4.91764C10.327 4.75371 10.491 4.75371 10.491 4.75371C10.9827 4.58979 11.6384 4.26195 11.4745 3.77019C11.4745 3.1145 10.8188 2.78666 10.1631 2.78666C9.83527 2.78666 9.50743 2.78666 9.17959 2.95058C8.5239 3.27842 7.7043 3.60627 6.72077 3.60627C8.5239 2.2949 10.8188 1.63921 13.1137 1.63921H14.4251C13.4415 1.80313 12.458 2.13098 11.8023 2.45882C12.7859 2.62274 12.9498 3.1145 12.6219 3.93411C12.458 4.26195 12.6219 4.58979 12.9498 4.75371C13.2776 4.91764 13.6055 4.91764 13.7694 4.58979C14.0972 4.09803 14.7529 3.93411 15.2447 3.77019C15.9004 3.60627 16.3921 3.27842 16.8839 2.62274C16.8839 2.45882 17.0478 2.45882 17.2117 2.2949C18.1953 2.62274 19.1788 3.27842 20.1623 3.93411C19.9984 3.93411 19.9984 4.09803 19.8345 4.09803C19.5066 4.42587 19.0149 4.58979 19.5066 5.24548C19.6705 5.57332 19.5066 5.73724 19.3427 5.90116C19.0149 6.06508 18.8509 5.90116 18.687 5.73724C18.5231 5.57332 18.5231 5.24548 18.0313 5.24548C17.8674 5.57332 17.3756 5.73724 17.3756 6.22901C18.1953 6.22901 18.0313 6.88469 18.1953 7.37645C17.2117 7.54038 16.8839 8.03214 17.3756 8.85175C17.5396 9.17959 17.2117 9.34351 17.0478 9.50743C16.3921 10.491 15.7364 11.1466 15.7364 12.2941C15.7364 13.4415 16.556 14.589 17.8674 14.4251C19.3427 14.2611 19.3427 14.2611 19.8345 15.5725C19.8345 15.7364 19.9984 15.9004 19.9984 16.0643C20.1623 16.3921 20.3262 16.72 20.1623 17.0478C19.6705 18.3592 20.3262 19.3427 20.818 20.3262C20.9819 20.6541 21.1458 20.818 21.3098 20.9819C19.1788 23.2768 16.3921 24.5882 13.1137 24.5882Z" fill="black"/>
</svg>
