<svg width="36" height="36" viewBox="0 0 36 36" fill="none" xmlns="http://www.w3.org/2000/svg">
<g filter="url(#filter0_d_309_20)">
<path d="M17.8637 5.12123C19.2377 5.12123 19.924 5.12123 20.3509 5.54816C20.7779 5.97508 20.7779 6.66136 20.7779 8.03539V19.692C20.7779 21.066 20.7779 21.7523 20.3509 22.1792C19.924 22.6062 19.2377 22.6062 17.8637 22.6062M17.8637 5.12123C16.4897 5.12123 15.8034 5.12123 15.3765 5.54816C14.9495 5.97508 14.9495 6.66136 14.9495 8.03539V19.692C14.9495 21.066 14.9495 21.7523 15.3765 22.1792C15.8034 22.6062 16.4897 22.6062 17.8637 22.6062M17.8637 5.12123V0.75M17.8637 22.6062V26.9774M28.0632 3.66415C29.4373 3.66415 30.1235 3.66416 30.5505 4.09108C30.9774 4.518 30.9774 5.20429 30.9774 6.57831V9.49246C30.9774 10.8665 30.9774 11.5528 30.5505 11.9797C30.1235 12.4066 29.4373 12.4066 28.0632 12.4066M28.0632 3.66415C26.6892 3.66415 26.0029 3.66416 25.576 4.09108C25.1491 4.518 25.1491 5.20429 25.1491 6.57831V9.49246C25.1491 10.8665 25.1491 11.5528 25.576 11.9797C26.0029 12.4066 26.6892 12.4066 28.0632 12.4066M28.0632 3.66415V0.75M28.0632 12.4066V15.3208M7.66415 10.9495C9.03818 10.9495 9.72446 10.9495 10.1514 11.3765C10.5783 11.8034 10.5783 12.4897 10.5783 13.8637V16.7779C10.5783 18.1519 10.5783 18.8382 10.1514 19.2651C9.72446 19.692 9.03818 19.692 7.66415 19.692M7.66415 10.9495C6.29013 10.9495 5.60385 10.9495 5.17692 11.3765C4.75 11.8034 4.75 12.4897 4.75 13.8637V16.7779C4.75 18.1519 4.75 18.8382 5.17692 19.2651C5.60385 19.692 6.29013 19.692 7.66415 19.692M7.66415 10.9495V8.03539M7.66415 19.692V22.6062" stroke="black" stroke-width="1.5" stroke-linecap="round" stroke-linejoin="round" shape-rendering="crispEdges"/>
</g>
<defs>
<filter id="filter0_d_309_20" x="0" y="0" width="35.7274" height="35.7275" filterUnits="userSpaceOnUse" color-interpolation-filters="sRGB">
<feFlood flood-opacity="0" result="BackgroundImageFix"/>
<feColorMatrix in="SourceAlpha" type="matrix" values="0 0 0 0 0 0 0 0 0 0 0 0 0 0 0 0 0 0 127 0" result="hardAlpha"/>
<feOffset dy="4"/>
<feGaussianBlur stdDeviation="2"/>
<feComposite in2="hardAlpha" operator="out"/>
<feColorMatrix type="matrix" values="0 0 0 0 0 0 0 0 0 0 0 0 0 0 0 0 0 0 0.25 0"/>
<feBlend mode="normal" in2="BackgroundImageFix" result="effect1_dropShadow_309_20"/>
<feBlend mode="normal" in="SourceGraphic" in2="effect1_dropShadow_309_20" result="shape"/>
</filter>
</defs>
</svg>
